HIERARCHY
ROOT Hips
{
	OFFSET 0.000000 0.000000 0.000000
	CHANNELS 6 Xposition Yposition Zposition Xrotation Yrotation Zrotation
	JOINT LeftUpLeg_virtual
	{
		OFFSET 0.000000 0.000000 0.000000
		CHANNELS 3 Xrotation Yrotation Zrotation
		JOINT LeftUpLeg
		{
			OFFSET 10.205400 -3.823500 0.155100
			CHANNELS 3 Xrotation Yrotation Zrotation
			JOINT LeftLeg
			{
				OFFSET 0.708757 -12.982077 0.567790
				CHANNELS 3 Xrotation Yrotation Zrotation
				JOINT LeftFoot
				{
					OFFSET -0.708756 -10.717838 -2.184338
					CHANNELS 3 Xrotation Yrotation Zrotation
					JOINT LeftToeBase
					{
						OFFSET 0.108149 -7.191104 7.560241
						CHANNELS 3 Xrotation Yrotation Zrotation
						JOINT LeftToe_End
						{
							OFFSET 0.070230 0.081724 4.490308
							CHANNELS 3 Xrotation Yrotation Zrotation
							End Site
							{
								OFFSET 0 0 0
							}
						}
					}
				}
			}
		}
	}
	JOINT RightUpLeg_virtual
	{
		OFFSET 0.000000 0.000000 0.000000
		CHANNELS 3 Xrotation Yrotation Zrotation
		JOINT RightUpLeg
		{
			OFFSET -10.205400 -3.823500 0.005500
			CHANNELS 3 Xrotation Yrotation Zrotation
			JOINT RightLeg
			{
				OFFSET -0.708756 -12.982134 0.610632
				CHANNELS 3 Xrotation Yrotation Zrotation
				JOINT RightFoot
				{
					OFFSET 0.708754 -10.717769 -1.945823
					CHANNELS 3 Xrotation Yrotation Zrotation
					JOINT RightToeBase
					{
						OFFSET -0.108140 -7.191069 7.372968
						CHANNELS 3 Xrotation Yrotation Zrotation
						JOINT RightToe_End
						{
							OFFSET -0.070227 0.081735 4.479403
							CHANNELS 3 Xrotation Yrotation Zrotation
							End Site
							{
								OFFSET 0 0 0
							}
						}
					}
				}
			}
		}
	}
	JOINT Spine_virtual
	{
		OFFSET 0.000000 0.000000 0.000000
		CHANNELS 3 Xrotation Yrotation Zrotation
		JOINT Spine
		{
			OFFSET 0.000000 6.876099 0.125700
			CHANNELS 3 Xrotation Yrotation Zrotation
			JOINT Spine1
			{
				OFFSET 0.000000 5.730043 0.104720
				CHANNELS 3 Xrotation Yrotation Zrotation
				JOINT Spine1_split
				{
					OFFSET 0.000000 5.730043 0.104720
					CHANNELS 3 Xrotation Yrotation Zrotation
					JOINT Spine2
					{
						OFFSET 0.000000 5.730043 0.104720
						CHANNELS 3 Xrotation Yrotation Zrotation
						JOINT Neck_virtual
						{
							OFFSET 0.000000 0.000000 0.000000
							CHANNELS 3 Xrotation Yrotation Zrotation
							JOINT Neck
							{
								OFFSET 0.000000 10.314075 0.188496
								CHANNELS 3 Xrotation Yrotation Zrotation
								JOINT Head
								{
									OFFSET 0.000000 7.643700 -2.377400
									CHANNELS 3 Xrotation Yrotation Zrotation
									JOINT HeadTop_End
									{
										OFFSET 0.000000 43.788605 -13.619600
										CHANNELS 3 Xrotation Yrotation Zrotation
										End Site
										{
											OFFSET 0 0 0
										}
									}
								}
							}
						}
						JOINT LeftShoulder_virtual
						{
							OFFSET 0.000000 0.000000 0.000000
							CHANNELS 3 Xrotation Yrotation Zrotation
							JOINT LeftShoulder
							{
								OFFSET 2.196100 4.412489 0.087492
								CHANNELS 3 Xrotation Yrotation Zrotation
								JOINT LeftShoulder_split
								{
									OFFSET 2.196100 4.412489 0.087492
									CHANNELS 3 Xrotation Yrotation Zrotation
									JOINT LeftArm
									{
										OFFSET 8.771219 -2.981674 -0.026999
										CHANNELS 3 Xrotation Yrotation Zrotation
										JOINT LeftForeArm
										{
											OFFSET 8.512804 0.000000 -0.000000
											CHANNELS 3 Xrotation Yrotation Zrotation
											JOINT LeftHand
											{
												OFFSET 18.484802 0.000000 -0.000000
												CHANNELS 3 Xrotation Yrotation Zrotation
												End Site
												{
													OFFSET 0 0 0
												}
											}
										}
									}
								}
							}
						}
						JOINT RightShoulder_virtual
						{
							OFFSET 0.000000 0.000000 0.000000
							CHANNELS 3 Xrotation Yrotation Zrotation
							JOINT RightShoulder
							{
								OFFSET -2.196100 4.412496 0.070690
								CHANNELS 3 Xrotation Yrotation Zrotation
								JOINT RightShoulder_split
								{
									OFFSET -2.196100 4.412496 0.070690
									CHANNELS 3 Xrotation Yrotation Zrotation
									JOINT RightArm
									{
										OFFSET -8.771282 -2.981682 -0.094208
										CHANNELS 3 Xrotation Yrotation Zrotation
										JOINT RightForeArm
										{
											OFFSET -8.494598 0.000000 0.000000
											CHANNELS 3 Xrotation Yrotation Zrotation
											JOINT RightHand
											{
												OFFSET -18.483803 0.000000 0.000001
												CHANNELS 3 Xrotation Yrotation Zrotation
												End Site
												{
													OFFSET 0 0 0
												}
											}
										}
									}
								}
							}
						}
					}
				}
			}
		}
	}
}
MOTION
Frames: 6
Frame Time: 0.03333333
0.896717 31.005394 -1.095818 0.000000 0.000000 0.000000 -10.271548 -47.501783 -7.444058 -24.683629 -6.411176 20.403305 38.940664 -6.288065 -4.282847 -4.127794 -4.554421 -20.167566 -6.907716 -3.690559 3.304535 0.000000 0.000000 0.000000 -9.271244 -41.614659 -6.533431 2.853268 -17.327013 -13.772823 44.276636 0.003638 -6.732110 -24.052648 -5.011650 20.691049 3.270547 0.364475 1.063521 0.000000 0.000000 0.000000 -13.330186 -42.899660 -9.811019 7.801107 5.007565 -1.220185 13.582505 9.683233 -4.060232 0.690736 1.669764 0.130634 0.000000 0.000000 0.000000 11.110396 8.781128 -4.368913 -5.919933 -3.392435 3.235570 -12.182745 21.719237 -0.210070 0.000000 0.000000 0.000000 11.873328 9.273957 -4.125278 2.987734 -2.693523 -5.036646 -2.818376 -1.780817 -3.783690 -15.626529 -1.943504 -57.986223 17.223142 -54.047031 8.253803 0.000000 0.000000 0.000000 12.298468 9.347017 -4.142339 1.205546 9.838507 12.189683 0.388409 3.870077 4.443043 4.183272 -19.353372 63.328455 -1.946176 48.463406 3.371242 0.000000 0.000000 0.000000 
0.844869 30.955002 -0.861031 0.000000 0.000000 0.000000 -8.221266 -45.974966 -6.353976 -25.400574 -6.888863 20.748872 38.046807 -5.363049 -4.135171 -3.450070 -4.860994 -17.827799 -5.741984 -3.552016 2.861677 0.000000 0.000000 0.000000 -8.152676 -40.132457 -6.154379 1.757773 -17.591734 -12.151872 43.882196 0.545130 -8.529096 -23.471006 -4.943568 23.285937 2.734896 0.394906 1.178315 0.000000 0.000000 0.000000 -11.392469 -42.235100 -8.904936 7.796534 5.275760 -1.047602 13.511944 9.711825 -4.109954 -0.037440 0.587351 0.562303 0.000000 0.000000 0.000000 10.779866 8.875529 -4.195691 -5.879496 -3.303608 2.786769 -11.839708 21.996862 -0.007200 0.000000 0.000000 0.000000 11.885292 9.240759 -4.214372 2.991334 -2.629910 -5.313257 -2.747924 -1.464477 -3.497349 -12.521637 -1.454584 -56.936430 18.677589 -56.058525 8.852422 0.000000 0.000000 0.000000 12.245358 9.547115 -3.892618 1.397531 10.057308 11.844389 0.439003 4.810995 2.900493 3.386848 -19.686072 62.188797 -0.781220 49.069438 2.130323 0.000000 0.000000 0.000000 
0.697083 30.738123 -0.886131 0.000000 0.000000 0.000000 -5.058235 -43.095625 -5.025979 -29.207299 -6.816312 21.327262 37.668285 -4.165524 -2.826612 -0.949171 -6.249835 -15.526787 -5.187880 -3.432014 2.296641 0.000000 0.000000 0.000000 -5.389952 -36.659237 -5.405588 -0.527300 -18.075367 -9.170365 44.884189 1.241814 -11.903068 -22.360030 -3.928315 25.748589 0.802011 0.576347 0.738814 0.000000 0.000000 0.000000 -8.506241 -39.959554 -7.947127 8.093427 5.237919 -1.008400 13.498466 9.476887 -3.858329 -0.185662 -0.471642 0.983955 0.000000 0.000000 0.000000 10.509777 8.772376 -3.658362 -5.841007 -3.428679 2.038331 -11.103308 22.142495 0.127917 0.000000 0.000000 0.000000 12.001380 8.994788 -4.030077 3.025692 -2.941343 -5.560948 -2.873524 -1.187132 -2.817345 -6.785622 -0.787777 -55.553624 18.705791 -60.949842 7.954627 0.000000 0.000000 0.000000 12.238762 9.573395 -3.338022 1.675687 10.000051 11.040771 0.670561 4.933233 2.108071 3.139186 -18.238907 60.986582 2.499495 50.374124 -1.266199 0.000000 0.000000 0.000000 
0.504298 30.357616 -1.225534 0.000000 0.000000 0.000000 -1.117307 -39.168700 -3.862800 -35.996070 -6.301717 22.080673 38.232752 -3.109248 -0.677298 2.947193 -8.855181 -13.817157 -5.875474 -3.361427 2.314401 0.000000 0.000000 0.000000 -1.578405 -32.176468 -4.776821 -3.934363 -18.894718 -4.951032 47.865061 1.343642 -16.599860 -21.852185 -2.545834 27.061204 -1.948120 0.826934 -0.018231 0.000000 0.000000 0.000000 -4.754869 -36.725374 -7.072032 8.507402 4.957607 -1.131800 13.489770 9.027444 -3.386545 0.184859 -1.378363 0.992938 0.000000 0.000000 0.000000 10.414417 8.458187 -2.910838 -5.996724 -3.620711 1.163154 -10.142992 22.264052 0.086823 0.000000 0.000000 0.000000 12.156020 8.617315 -3.622907 3.053762 -3.433789 -5.609623 -2.829924 -1.470315 -1.666411 0.427969 -0.147914 -54.164493 17.410379 -67.783214 5.848503 0.000000 0.000000 0.000000 12.309730 9.400553 -2.643663 1.925755 9.613785 9.937585 1.445874 4.973307 2.028052 3.336257 -15.383900 60.133655 7.638572 52.240692 -6.591854 0.000000 0.000000 0.000000 
0.244170 29.836107 -1.732513 0.000000 0.000000 0.000000 3.247136 -34.665317 -3.137047 -44.700071 -5.640917 22.875956 40.579407 -2.179232 1.952677 7.419961 -12.129502 -11.962191 -7.336629 -3.258061 2.942422 0.000000 0.000000 0.000000 2.774188 -27.505804 -4.439513 -8.436446 -20.429606 0.220669 53.715446 -0.061572 -22.055606 -22.012330 -1.319959 26.811445 -4.568688 1.144340 -0.936835 0.000000 0.000000 0.000000 -0.542184 -33.202840 -6.426226 8.895267 4.581909 -1.382206 13.467873 8.430187 -2.821813 0.815221 -1.891271 0.870699 0.000000 0.000000 0.000000 10.600645 7.972728 -2.156677 -6.650943 -3.747540 0.319802 -9.269361 22.477104 -0.058824 0.000000 0.000000 0.000000 12.373232 8.164543 -3.115934 3.088165 -3.839590 -5.326175 -2.346074 -2.387837 -0.567880 7.474888 0.193515 -53.402862 14.898126 -74.829490 2.643794 0.000000 0.000000 0.000000 12.510692 9.012116 -1.997456 2.097694 8.727286 8.594515 2.636125 4.990314 2.186783 3.753777 -11.632669 59.924842 14.193872 54.354167 -13.455259 0.000000 0.000000 0.000000 
-0.021396 29.160542 -2.335327 0.000000 0.000000 0.000000 7.774320 -30.124153 -2.931995 -54.343044 -4.956294 23.448436 44.322221 -0.845739 4.388610 10.908383 -15.097699 -8.980308 -8.261178 -3.002889 3.667677 0.000000 0.000000 0.000000 7.507256 -23.077628 -4.340929 -14.500509 -22.925463 5.644046 62.669663 -3.487260 -27.318530 -22.303762 -0.313747 25.530778 -6.498861 1.447010 -1.915643 0.000000 0.000000 0.000000 4.146942 -30.289341 -5.806366 9.154432 4.318096 -1.659820 13.433543 7.774974 -2.261272 1.429877 -1.684342 0.776113 0.000000 0.000000 0.000000 11.051765 7.420154 -1.541924 -8.135181 -3.837012 -0.438919 -8.774896 22.870192 -0.245205 0.000000 0.000000 0.000000 12.613132 7.702832 -2.539877 3.115986 -3.809552 -4.546216 -2.018207 -3.508806 0.213732 13.236306 -0.261599 -53.772232 12.090597 -79.923349 -0.668424 0.000000 0.000000 0.000000 12.862352 8.460890 -1.529414 2.236712 7.151693 6.984524 4.028078 4.657931 2.520291 3.642202 -7.940300 60.329893 21.112460 55.843671 -20.867551 0.000000 0.000000 0.000000 
